HIERARCHY
ROOT joint_0
{
	OFFSET 0.000000 0.000000 0.000000
	CHANNELS 6 Xposition Yposition Zposition Zrotation Yrotation Xrotation 
	JOINT joint_1
	{
		OFFSET 0.000000 0.000000 0.000000
		CHANNELS 3 Zrotation Yrotation Xrotation
		JOINT joint_2
		{
			OFFSET 3.811170 -8.520760 0.839290
			CHANNELS 3 Zrotation Yrotation Xrotation
			JOINT joint_3
			{
				OFFSET 2.562200 -7.039590 0.000000
				CHANNELS 3 Zrotation Yrotation Xrotation
				JOINT joint_4
				{
					OFFSET 0.157640 -0.433110 2.322550
					CHANNELS 3 Zrotation Yrotation Xrotation
					End Site
					{
						OFFSET 0.000000 0.000000 0.000000
					}
				}
			}
		}
	}
	JOINT joint_5
	{
		OFFSET 0.000000 0.000000 0.000000
		CHANNELS 3 Zrotation Yrotation Xrotation
		JOINT joint_6
		{
			OFFSET -3.848050 -8.780180 0.839290
			CHANNELS 3 Zrotation Yrotation Xrotation
			JOINT joint_7
			{
				OFFSET -2.568260 -7.056230 0.000000
				CHANNELS 3 Zrotation Yrotation Xrotation
				JOINT joint_8
				{
					OFFSET -0.164730 -0.452590 2.363150
					CHANNELS 3 Zrotation Yrotation Xrotation
					End Site
					{
						OFFSET 0.000000 0.000000 0.000000
					}
				}
			}
		}
	}
	JOINT joint_9
	{
		OFFSET 0.028270 2.035590 -0.193380
		CHANNELS 3 Zrotation Yrotation Xrotation
		JOINT joint_10
		{
			OFFSET 0.056720 2.048850 -0.042750
			CHANNELS 3 Zrotation Yrotation Xrotation
			JOINT joint_11
			{
				OFFSET -0.054170 1.746240 0.172020
				CHANNELS 3 Zrotation Yrotation Xrotation
				JOINT joint_12
				{
					OFFSET 0.104070 1.761360 -0.123970
					CHANNELS 3 Zrotation Yrotation Xrotation
					End Site
					{
						OFFSET 0.000000 0.000000 0.000000
					}
				}
			}
			JOINT joint_13
			{
				OFFSET 3.362410 1.200890 -0.311210
				CHANNELS 3 Zrotation Yrotation Xrotation
				JOINT joint_14
				{
					OFFSET 4.983000 -0.000000 -0.000000
					CHANNELS 3 Zrotation Yrotation Xrotation
					JOINT joint_15
					{
						OFFSET 3.483560 -0.000000 -0.000000
						CHANNELS 3 Zrotation Yrotation Xrotation
						JOINT joint_16
						{
							OFFSET 0.715260 -0.000000 -0.000000
							CHANNELS 3 Zrotation Yrotation Xrotation
							End Site
							{
								OFFSET 0.000000 0.000000 0.000000
							}
						}
					}
				}
			}
			JOINT joint_17
			{
				OFFSET -3.136600 1.374050 -0.404650
				CHANNELS 3 Zrotation Yrotation Xrotation
				JOINT joint_18
				{
					OFFSET -5.241900 -0.000000 -0.000000
					CHANNELS 3 Zrotation Yrotation Xrotation
					JOINT joint_19
					{
						OFFSET -3.444170 -0.000000 -0.000000
						CHANNELS 3 Zrotation Yrotation Xrotation
						JOINT joint_20
						{
							OFFSET -0.622530 -0.000000 -0.000000
							CHANNELS 3 Zrotation Yrotation Xrotation
							End Site
							{
								OFFSET 0.000000 0.000000 0.000000
							}
						}
					}
				}
			}
		}
	}
}
MOTION
Frames: 11
Frame Time: 0.031667
-2.459858 14.507683 5.742495 170.276443 -42.221558 178.379807 -91.556644 -66.506884 -70.382463 -30.683457 13.187399 -2.397888 -125.305080 -2.375436 -175.392496 17.177176 -10.362326 -19.410993 -120.288984 88.474222 -137.786467 59.657044 -48.936676 28.497521 -110.348058 46.423519 160.362300 -4.830930 2.112401 17.038491 44.351635 5.839927 85.545538 -23.013619 1.618228 -19.445166 -4.931900 19.286554 160.729036 -0.615833 -16.308088 53.379486 35.701771 -46.288028 -149.259400 -175.811472 30.120456 -157.892773 -65.380483 46.183103 127.956313 -13.908804 -1.530710 1.381668 -29.096896 82.473762 -1.489687 157.452830 -73.789421 0.495767 28.499711 -26.546066 -27.258380 15.543074 1.441496 0.441069 
-2.618448 14.527208 5.658350 170.375656 -37.557163 178.634201 23.201273 -75.538807 145.138103 -43.377217 15.387129 -34.254215 -64.788087 -7.938842 -173.627794 18.186485 -12.106968 -26.346953 -141.804739 54.561281 -130.068585 106.230697 -66.983856 -33.208646 -24.161909 37.147425 114.332658 -6.360170 7.067823 3.324947 91.730083 44.068999 116.542644 8.414424 -5.435224 -40.552855 23.754414 7.471605 179.974173 13.625303 -14.347209 43.937518 101.471107 -64.960782 -33.431683 -173.908477 57.857595 -131.763227 -64.630658 44.593646 99.878553 -13.775316 -1.380002 1.157862 -74.133418 88.083964 -50.072448 -117.202768 -46.321978 79.905639 40.278500 -34.604071 -78.558254 15.307863 1.208794 0.252115 
-2.764054 14.545231 5.564871 170.413406 -32.941769 178.892181 -142.476202 -69.396655 -31.698655 -28.612474 -38.220451 10.103746 3.353314 -15.296601 -62.567818 16.542956 -9.898341 -21.372808 -179.789359 84.601539 -147.475486 42.512327 -22.528419 -42.674940 120.654923 44.971970 -53.329690 -7.111087 10.009078 -2.914316 16.736173 33.458631 70.431210 -55.485417 -7.623906 -83.643576 76.248585 9.278820 127.031724 -12.562343 -15.881587 18.574114 175.169285 -34.662978 -100.931235 -142.643288 39.480425 177.594837 -96.000897 45.225251 111.601548 -12.819846 -1.296560 0.923305 11.947636 88.566605 -9.796230 167.871008 -68.125473 -2.983941 -1.159423 -0.054807 -158.208997 14.143871 0.976706 0.154147 
-2.906213 14.562422 5.467940 170.488632 -28.315804 179.197021 -87.250448 -75.888094 -20.774980 -63.296777 -38.212439 23.399091 -92.116658 -22.906636 -112.972148 15.139041 -4.797531 -6.620863 7.289241 75.385918 23.615147 70.757413 0.498047 -13.914887 -15.575207 30.277665 141.406899 -10.125510 7.045108 8.395134 8.859371 17.166463 65.993841 -21.802071 -4.541839 -51.977839 4.710916 17.941782 156.827304 -42.394851 -15.421759 -0.009788 87.670423 -21.961106 -10.592962 -99.169684 35.396791 -101.410498 -32.634927 25.786402 19.207513 -11.938537 -1.175940 0.627557 83.882127 42.231599 46.626180 179.050429 -63.822809 -48.034243 44.805672 -37.614825 -67.269270 13.120088 0.688788 0.180313 
-3.037075 14.576888 5.359700 170.548111 -23.823706 179.467407 -100.232746 -67.964002 -22.162545 -36.869942 2.462561 46.629036 -123.233196 -50.570468 35.862130 15.680642 -5.654235 -11.853822 45.798450 85.385759 22.135473 82.568579 -47.437129 -5.617022 57.892533 59.323294 -123.290351 -13.385340 8.176589 4.523257 47.407626 -1.738745 29.284368 -19.857983 14.472379 -8.366964 33.948205 -2.207960 92.909861 -30.987339 -15.047641 7.261848 162.241704 -19.789186 -82.917868 -134.539258 35.146833 174.388847 -32.776999 12.151285 -54.134519 -10.941284 -0.947276 0.349632 -103.905790 54.281931 11.943538 4.693746 -85.778068 46.163445 32.553218 -14.244558 -83.860680 11.952056 0.356987 0.157886 
-3.164959 14.590025 5.247998 170.648514 -19.354546 179.764572 -106.624321 -38.820610 -40.539304 -29.911369 15.214605 42.987892 -96.346471 -55.815971 31.269514 14.634783 -6.902378 -18.346505 24.824907 68.177589 28.327846 53.335482 -48.652257 -60.807999 -9.824752 5.884558 -75.598487 -12.702204 7.861661 -0.274618 37.489139 9.986331 -3.226099 -4.661382 1.101764 -34.325307 43.810937 23.445377 95.911989 -18.811663 -13.625842 13.769962 125.649471 -2.545194 -103.709456 -137.415994 -14.688631 -172.963334 -15.021784 21.205560 -9.379759 -9.768609 -0.733263 0.061372 -72.546444 32.586447 73.788036 136.512752 -50.876677 -115.617237 4.667518 -21.158056 -52.940591 10.523864 0.073456 0.068450 
-3.282469 14.598531 5.124234 170.778320 -15.053505 -179.976471 -80.739311 -29.794286 -31.688215 -27.004749 -32.246392 22.200261 -83.664278 -39.954510 -24.248044 11.701184 -4.674073 -11.645998 -35.324516 40.408041 58.326988 80.911165 -22.782863 -48.652056 20.137425 24.189455 -76.818864 -9.254181 6.825225 -1.678376 -6.266188 25.027954 8.926663 -17.914005 10.778946 3.265017 39.816704 17.427265 76.671995 -18.264278 -14.964179 10.790437 93.162660 -3.951179 -82.185160 -178.091529 -64.121442 174.135022 -9.433320 5.795178 -23.735312 -8.774618 -0.547200 -0.018974 1.051047 10.926426 94.491152 124.751587 3.877275 160.747423 3.068795 -29.291324 -38.688999 9.351980 -0.011465 0.117806 
-3.397201 14.605514 4.997565 170.957077 -10.781870 -179.693497 -45.856302 -34.599611 -48.361202 -26.904600 -33.650915 -1.693745 -64.352055 -27.023051 -3.163360 9.293920 1.166499 6.200403 -18.000292 19.966516 34.128102 86.266881 3.088167 -39.422144 32.539113 11.453362 -75.144922 -7.500232 1.747920 10.905085 25.530187 21.718024 -2.398431 1.523328 1.233067 -19.684598 18.542032 6.375174 51.810919 -19.685940 -13.774618 4.714686 54.772130 -7.547516 -54.985475 -125.723236 -77.922154 157.211579 -23.203309 -2.417791 11.324355 -7.640518 -0.420894 -0.075364 29.356918 28.522810 57.451624 87.259910 25.244839 159.607514 12.699095 -21.057603 -23.693277 7.987322 -0.072399 0.006908 
-3.501622 14.606843 4.860115 171.189468 -6.673385 -179.448105 -31.561201 0.454710 -38.293442 -14.044684 -31.664146 -6.390307 -27.023922 -33.203800 4.128095 7.030961 4.837005 16.147390 -31.186545 2.880081 26.356669 60.381563 3.331320 -61.541364 36.089220 6.807645 -65.064607 -4.847137 -3.753221 21.039317 -5.344661 -0.039713 -13.800083 -11.604171 -1.811364 -10.462158 10.984889 -0.084760 36.437417 -11.865315 -13.838180 1.791807 38.725701 -26.693074 -33.284010 35.202221 -74.024320 -12.247693 -0.816786 -0.864725 8.008880 -6.656384 -0.283877 -0.140205 35.693715 28.462325 55.958831 178.224192 69.262648 -143.879207 10.024325 -16.721872 -16.786868 6.821983 -0.151045 -0.031401 
-3.603539 14.607029 4.720396 171.478287 -2.584581 -179.173004 -37.857710 9.398577 -23.658930 -15.524704 -25.046362 13.833670 -10.742763 -16.039181 -14.039176 6.300368 3.831200 12.691901 -35.086122 1.750241 8.889047 66.291139 4.135619 -45.556091 23.420785 -5.195255 -72.733018 -3.755820 -7.054107 26.850240 3.761102 5.235207 -17.899627 -6.813359 12.107081 -14.120367 -6.383301 -3.603081 23.865572 -5.168622 -12.694394 -1.616915 25.161430 -10.307285 -17.143304 56.151159 -66.568212 -34.685569 -0.928097 2.271627 8.065403 -6.088163 -0.195800 -0.091943 55.421480 7.854667 25.292471 161.783489 89.453862 -174.952625 2.766859 -11.491317 4.379895 6.117055 -0.112503 -0.008342 
-3.695530 14.602684 4.571686 171.832626 1.375654 -178.939560 -16.232692 12.978937 -28.190752 -29.851007 -17.883846 4.263808 16.895866 -21.896712 -3.508782 5.776445 1.396364 5.631949 -36.923449 -14.166837 17.799131 53.846500 0.734958 -30.876755 36.513655 -14.119791 -61.045963 -4.703220 -12.194239 40.169063 -1.714810 2.205662 -19.298406 -13.517539 3.318970 -0.038559 12.114798 2.987735 10.286941 -3.110810 -9.827491 -6.579003 3.506506 -12.061721 -9.961356 59.111415 -45.304477 -14.473123 3.172526 -0.011847 15.440163 -5.727012 -0.136125 -0.074628 55.134578 9.942737 36.044906 -51.720767 78.742608 -28.029425 -7.414059 -14.733710 -0.930827 5.688920 -0.088064 -0.011393 
